#!OML:ASF F:\VICON\USERDATA\INSTALL\rory3\rory3.ASF
:FULLY-SPECIFIED
:DEGREES
234
root 3.77063 16.9073 -5.57307 359.706 72.0161 -12.8349
lowerback -4.02019 2.58692 -0.942234
upperback -5.30638 3.53383 -2.54756
thorax -3.11067 1.80422 -2.05427
lowerneck -11.5612 -9.20771 -14.635
upperneck 30.3308 -12.8598 11.6132
head 14.0611 -5.73245 5.11212
rclavicle -3.10601e-016 -3.18055e-015
rhumerus -21.9947 10.2705 -91.3708
rradius 36.6957
rwrist 16.9416
rhand -31.476 -46.4436
rfingers 7.12502
rthumb 175.257 103.63
lclavicle -3.10601e-016 -3.18055e-015
lhumerus -47.927 20.9068 48.3806
lradius 46.6614
lwrist 22.3713
lhand -40.4479 -752.963
lfingers 7.12502
lthumb -13.3995 -3.41439
rfemur -29.5132 7.69424 17.3441
rtibia 41.7615
rfoot -19.342 -16.5976
rtoes -4.59779
lfemur -32.8235 0.174927 -10.2208
ltibia 50.5553
lfoot -28.1987 -4.33056
ltoes -16.993
235
root 3.786 16.9114 -5.56307 360.568 70.7727 -12.0192
lowerback -4.41846 2.6225 -0.920845
upperback -5.32234 3.593 -2.24505
thorax -2.92032 1.83872 -1.73294
lowerneck -11.4152 -9.44824 -15.2575
upperneck 30.4489 -13.1822 11.8467
head 14.2204 -5.92406 5.26297
rclavicle 2.25434e-014 -4.77083e-015
rhumerus -22.6239 9.92685 -92.1184
rradius 36.0951
rwrist 18.52
rhand -30.5138 -45.1448
rfingers 7.12502
rthumb 176.186 104.91
lclavicle 2.25434e-014 -4.77083e-015
lhumerus -49.5035 22.6104 47.8301
lradius 45.2241
lwrist 22.3921
lhand -40.039 -753.862
lfingers 7.12502
lthumb -13.0053 -4.28712
rfemur -29.6824 8.4619 17.1389
rtibia 41.6749
rfoot -19.2468 -16.3465
rtoes -5.05347
lfemur -31.8754 -0.419409 -10.2748
ltibia 50.2559
lfoot -28.5817 -4.28413
ltoes -16.1535
236
root 3.80294 16.9088 -5.58643 361.487 69.8396 -11.0524
lowerback -4.51731 2.50743 -0.484491
upperback -5.36677 3.43302 -2.0517
thorax -2.90078 1.74684 -1.77632
lowerneck -11.2006 -9.62525 -15.894
upperneck 30.6376 -13.3877 11.9753
head 14.3706 -6.08148 5.39983
rclavicle -3.18459e-014 1.27222e-014
rhumerus -23.4523 10.4398 -92.9466
rradius 35.6931
rwrist 19.3452
rhand -30.3778 -44.2756
rfingers 7.12502
rthumb 176.318 105.776
lclavicle -3.18459e-014 1.27222e-014
lhumerus -51.1705 23.8034 47.1425
lradius 43.7034
lwrist 22.5822
lhand -39.758 -754.151
lfingers 7.12502
lthumb -12.7345 -4.55937
rfemur -29.8777 8.59515 16.7517
rtibia 41.742
rfoot -19.1401 -16.0085
rtoes -6.03259
lfemur -30.9739 -1.82423 -10.5527
ltibia 49.7294
lfoot -28.7215 -3.4406
ltoes -14.9766
237
root 3.82356 16.9062 -5.61277 363.796 68.8749 -8.96845
lowerback -4.99866 2.50234 -0.548839
upperback -5.51768 3.43954 -2.06472
thorax -2.7921 1.75569 -1.73463
lowerneck -10.8118 -9.86418 -16.0495
upperneck 30.7913 -13.7422 11.8576
head 14.4268 -6.28028 5.32521
rclavicle 3.71417e-014 2.70347e-014
rhumerus -24.5664 11.582 -93.9472
rradius 35.5661
rwrist 18.8295
rhand -30.7165 -44.2813
rfingers 7.12502
rthumb 175.991 105.777
lclavicle 3.71417e-014 2.70347e-014
lhumerus -52.4616 24.3938 46.5035
lradius 42.1013
lwrist 22.9336
lhand -39.8789 -753.751
lfingers 7.12502
lthumb -12.8511 -4.16666
rfemur -30.5309 8.58723 15.8264
rtibia 41.8772
rfoot -19.0298 -15.4609
rtoes -6.84996
lfemur -30.4594 -2.8808 -11.3807
ltibia 49.017
lfoot -28.7757 -2.03449
ltoes -14.6143
238
root 3.84227 16.9088 -5.63648 366.393 67.9001 -6.52851
lowerback -5.38863 2.49857 -0.837439
upperback -5.67591 3.45299 -2.16933
thorax -2.75003 1.77397 -1.66732
lowerneck -10.4378 -10.0995 -15.9909
upperneck 30.8645 -14.0967 11.6183
head 14.4157 -6.46865 5.15859
rclavicle -9.60378e-015 8.74653e-015
rhumerus -25.7202 12.863 -95.1006
rradius 35.4611
rwrist 17.9384
rhand -31.1952 -45.4685
rfingers 7.12502
rthumb 175.528 104.599
lclavicle -9.60378e-015 8.74653e-015
lhumerus -53.6421 24.9196 45.7544
lradius 40.4431
lwrist 23.304
lhand -39.9054 -753.363
lfingers 7.12502
lthumb -12.8766 -3.78029
rfemur -31.1728 8.62673 14.6726
rtibia 42.0185
rfoot -19.0888 -14.7286
rtoes -7.34292
lfemur -30.0024 -3.84671 -12.4159
ltibia 48.1819
lfoot -28.651 -0.476093
ltoes -14.2651
239
root 3.86263 16.9155 -5.6494 367.979 66.8436 -5.03069
lowerback -5.66998 2.58574 -0.981083
upperback -5.80583 3.58167 -2.19275
thorax -2.73354 1.84539 -1.59781
lowerneck -10.0437 -10.3647 -16.0609
upperneck 30.9012 -14.5085 11.5095
head 14.42 -6.68252 5.05766
rclavicle 9.6336e-014 3.97569e-015
rhumerus -26.7774 13.438 -96.0428
rradius 35.2092
rwrist 17.6866
rhand -31.5815 -46.6606
rfingers 7.12502
rthumb 175.155 103.415
lclavicle 9.6336e-014 3.97569e-015
lhumerus -54.6535 25.1812 45.019
lradius 38.6601
lwrist 23.1548
lhand -39.5561 -753.053
lfingers 7.12502
lthumb -12.5398 -3.44892
rfemur -31.6568 9.06537 13.8336
rtibia 42.106
rfoot -19.2301 -14.0604
rtoes -6.98986
lfemur -29.5006 -4.89762 -13.0626
ltibia 47.3154
lfoot -28.348 1.26266
ltoes -13.8536
240
root 3.88603 16.9202 -5.65808 368.396 65.7518 -4.82041
lowerback -5.94119 2.91569 -0.64707
upperback -5.98526 4.01761 -2.22013
thorax -2.73716 2.05453 -1.78821
lowerneck -9.51803 -10.7703 -16.1943
upperneck 31.0212 -15.1971 11.582
head 14.5126 -7.00326 4.99873
rclavicle -5.87657e-014 -1.74931e-014
rhumerus -27.8677 13.3698 -96.7969
rradius 34.9864
rwrist 17.4346
rhand -32.2274 -48.2298
rfingers 7.12502
rthumb 174.532 101.861
lclavicle -5.87657e-014 -1.74931e-014
lhumerus -55.25 24.9461 44.5362
lradius 36.8728
lwrist 22.6778
lhand -39.0623 -752.052
lfingers 7.12502
lthumb -12.0637 -2.42002
rfemur -32.124 9.59985 13.5401
rtibia 42.1176
rfoot -19.2193 -13.5154
rtoes -6.96383
lfemur -29.1194 -4.95048 -13.2655
ltibia 46.5364
lfoot -28.0777 2.83181
ltoes -15.0203
241
root 3.9079 16.9229 -5.67312 368.593 64.6165 -4.81252
lowerback -6.22978 3.12602 -0.321317
upperback -6.06571 4.29244 -2.06945
thorax -2.64206 2.18496 -1.78896
lowerneck -9.17459 -11.044 -16.3705
upperneck 31.1432 -15.6322 11.5787
head 14.5964 -7.22284 4.95691
rclavicle 3.79679e-014 1.27222e-014
rhumerus -28.8497 14.1577 -97.5658
rradius 34.7715
rwrist 17.1053
rhand -32.5214 -48.7649
rfingers 7.12502
rthumb 174.248 101.333
lclavicle 3.79679e-014 1.27222e-014
lhumerus -55.9023 24.6907 44.411
lradius 35.0725
lwrist 23.003
lhand -37.4966 -749.352
lfingers 7.12502
lthumb -10.5537 0.363021
rfemur -32.54 9.76213 13.3843
rtibia 42.0844
rfoot -19.2314 -12.5707
rtoes -6.89394
lfemur -28.7004 -4.25464 -13.463
ltibia 45.8835
lfoot -27.9062 3.64406
ltoes -15.7164
242
root 3.9299 16.9208 -5.69813 369.178 63.6294 -4.31353
lowerback -6.39417 3.19077 -0.039249
upperback -6.13675 4.37084 -1.97323
thorax -2.60979 2.21684 -1.8357
lowerneck -8.73427 -11.1939 -16.5652
upperneck 31.0955 -15.9053 11.6534
head 14.5606 -7.37384 4.98253
rclavicle 6.24929e-014 4.77083e-015
rhumerus -29.8264 14.88 -98.3959
rradius 34.4447
rwrist 17.3913
rhand -31.5465 -46.6889
rfingers 7.12502
rthumb 175.189 103.386
lclavicle 6.24929e-014 4.77083e-015
lhumerus -56.709 24.5059 44.1529
lradius 33.2783
lwrist 23.5661
lhand -37.4938 -749.312
lfingers 7.12502
lthumb -10.551 0.402755
rfemur -32.9012 9.74193 12.9487
rtibia 42.0432
rfoot -19.2193 -11.6122
rtoes -6.52253
lfemur -28.246 -4.77305 -13.8413
ltibia 45.3769
lfoot -27.6684 4.48794
ltoes -13.888
243
root 3.95285 16.9152 -5.71445 369.441 62.5019 -4.0231
lowerback -6.48838 3.3149 0.16804
upperback -6.171 4.52887 -1.83561
thorax -2.58403 2.29111 -1.79748
lowerneck -8.26714 -11.4196 -16.8397
upperneck 31.0582 -16.3032 11.7846
head 14.5657 -7.58278 5.021
rclavicle -2.74323e-014 -2.78299e-014
rhumerus -30.6268 14.5836 -98.9044
rradius 33.9026
rwrist 18.5797
rhand -29.9721 -43.7
rfingers 7.12502
rthumb 176.71 106.346
lclavicle -2.74323e-014 -2.78299e-014
lhumerus -58.24 25.5737 42.5818
lradius 31.9281
lwrist 22.7388
lhand -37.9113 -750.626
lfingers 7.12502
lthumb -10.9537 -0.93156
rfemur -33.1372 10.1386 12.6163
rtibia 42.0027
rfoot -19.0915 -11.0631
rtoes -6.95986
lfemur -27.6305 -5.32497 -14.1429
ltibia 44.9732
lfoot -27.6056 5.3734
ltoes -11.8713
